<svg width="1920" height="590" viewBox="0 0 1920 590" fill="none" xmlns="http://www.w3.org/2000/svg">
<path d="M1478.91 335.161L1656.13 202.283L1749.93 268.722L1920 144.603V499.979H1460.45L1478.91 335.161Z" fill="#3BC3D1"/>
<path d="M1656.13 202.283L1720.68 290.15L1749.93 268.722L1656.13 202.283Z" fill="#73D5E5"/>
<path d="M279.368 86.9236L833.927 535.557H0V316.429L279.368 86.9236Z" fill="#3BC3D1"/>
<path d="M279.368 86.9236L330.444 202.283H291.902L390.28 296.753L480.034 249.316L279.368 86.9236Z" fill="#73D5E5"/>
<path d="M3.05176e-05 451.059C3.05176e-05 451.059 163.875 431.788 563.992 202.282H635.957L659.945 168.726L1000.77 0.134644L1920 432.731V761.423H3.05176e-05V451.059Z" fill="#3BC3D1"/>
<path d="M1000.77 0L1267.6 221.419L1068.28 187.728L1457.49 417.503L1920 432.731L1000.77 0Z" fill="#73D5E5"/>
<path d="M1457.49 417.503L1211.67 614.26L1539.15 417.503H1457.49Z" fill="#73D5E5"/>
<path d="M636.092 202.283L546.473 290.149L602.4 202.283H636.092Z" fill="#73D5E5"/>
</svg>
