<svg width="1080" height="786" viewBox="0 0 1080 786" fill="none" xmlns="http://www.w3.org/2000/svg">
<path d="M755.913 219.161L933.13 86.2826L1026.93 152.722L1197 28.6031V383.979H737.451L755.913 219.161Z" fill="#3BC3D1"/>
<path d="M933.13 86.2827L997.682 174.15L1026.93 152.722L933.13 86.2827Z" fill="#73D5E5"/>
<path d="M76.3683 0.923584L630.927 449.557H-203V230.429L76.3683 0.923584Z" fill="#3BC3D1"/>
<path d="M76.3684 0.923584L127.444 116.283H88.9016L187.28 210.753L277.034 163.316L76.3684 0.923584Z" fill="#73D5E5"/>
<path d="M-513 485.059C-513 485.059 -349.125 465.788 50.9924 236.282H122.957L146.945 202.726L487.767 34.1346L1407 466.731V795.423H-513V485.059Z" fill="#3BC3D1"/>
<path d="M487.767 34L754.602 255.419L555.284 221.728L944.486 451.503L1407 466.731L487.767 34Z" fill="#73D5E5"/>
<path d="M944.486 451.503L698.674 648.26L1026.15 451.503H944.486Z" fill="#73D5E5"/>
<path d="M123.092 236.283L33.4729 324.149L89.4005 236.283H123.092Z" fill="#73D5E5"/>
</svg>
