<svg width="1440" height="698" viewBox="0 0 1440 698" fill="none" xmlns="http://www.w3.org/2000/svg">
<path d="M1136.32 269.724L1278.62 163.027L1353.94 216.376L1490.5 116.712V402.068H1121.5L1136.32 269.724Z" fill="#3BC3D1"/>
<path d="M1278.62 163.027L1330.45 233.581L1353.94 216.376L1278.62 163.027Z" fill="#73D5E5"/>
<path d="M173.123 70.3971L618.417 430.636H-51.2008V254.683L173.123 70.3971Z" fill="#3BC3D1"/>
<path d="M173.124 70.3971L214.136 163.027H183.187L262.182 238.884L334.252 200.793L173.124 70.3971Z" fill="#73D5E5"/>
<path d="M-51.2008 362.787C-51.2008 362.787 80.3854 347.312 401.668 163.027H459.453L478.715 136.082L752.384 0.708252L1490.5 348.07V612H-51.2008V362.787Z" fill="#3BC3D1"/>
<path d="M752.384 0.600098L966.645 178.393L806.599 151.34L1119.12 335.842L1490.5 348.07L752.384 0.600098Z" fill="#73D5E5"/>
<path d="M1119.12 335.842L921.737 493.832L1184.69 335.842H1119.12Z" fill="#73D5E5"/>
<path d="M459.562 163.027L387.6 233.581L432.508 163.027H459.562Z" fill="#73D5E5"/>
<path d="M1443.98 392.647C1444.08 390.02 1442.5 387.707 1441.03 385.605C1439.35 383.293 1438.19 380.876 1436.62 378.459C1434.94 375.726 1433.04 373.414 1432.73 370.051C1435.67 367.213 1438.72 376.357 1442.61 375.096C1445.34 374.255 1444.08 370.051 1442.4 367.634C1438.61 362.168 1436.2 355.863 1434.72 349.346C1433.99 346.088 1433.46 342.83 1433.04 339.572C1432.83 338.206 1433.04 331.164 1429.99 333.161C1429.05 333.792 1428.73 334.948 1428.52 335.999C1427.26 341.464 1426.1 347.034 1424.74 352.394C1423.58 356.703 1423.06 362.589 1420.32 366.267C1418.85 368.264 1416.96 369.736 1417.06 372.573C1417.06 372.783 1417.06 372.994 1417.17 373.204C1417.38 373.519 1417.7 373.624 1418.01 373.729C1421.27 374.78 1423.37 372.468 1425.47 370.366C1425.79 370.051 1426 369.841 1426.42 369.631C1426.74 369.525 1427.26 369.525 1427.47 369.736C1428.21 370.471 1427.58 372.573 1427.47 373.414C1427.05 376.147 1425.68 378.774 1424.11 381.086C1421.37 384.765 1417.91 387.813 1415.8 391.806C1415.7 392.122 1415.49 392.332 1415.38 392.647H1399.4L1291.34 500.689C1289.45 496.905 1286.19 493.752 1283.56 490.494C1281.98 488.497 1280.62 486.395 1279.99 483.978C1279.88 483.347 1279.04 481.14 1279.46 480.51C1280.3 479.248 1281.56 480.93 1282.09 481.666C1282.82 482.822 1283.56 483.978 1284.4 485.134C1285.03 485.975 1285.77 486.816 1286.61 487.446C1287.55 487.972 1288.71 488.287 1289.66 487.867C1290.92 487.341 1291.55 485.765 1291.65 484.293C1291.76 482.086 1290.81 479.879 1289.66 478.092C1288.39 476.306 1286.82 474.729 1285.35 473.048C1284.19 471.891 1283.14 470.63 1282.19 469.369C1281.04 468.003 1276.62 459.595 1279.99 458.439C1280.83 458.124 1281.67 458.544 1282.3 459.175C1282.93 459.805 1283.35 460.541 1283.98 461.171C1285.35 462.643 1287.34 463.484 1289.34 463.378C1289.87 463.378 1290.39 463.273 1290.81 462.958C1291.44 462.433 1291.65 461.592 1291.76 460.751C1291.76 458.124 1290.29 455.811 1288.82 453.815C1287.13 451.502 1285.98 449.085 1284.4 446.668C1282.72 443.935 1280.83 441.623 1280.51 438.26C1283.45 435.422 1286.5 444.566 1290.39 443.305C1293.13 442.464 1291.86 438.26 1290.18 435.843C1286.4 430.378 1283.98 424.072 1282.51 417.555C1281.77 414.297 1281.25 411.039 1280.83 407.781C1280.62 406.415 1280.83 399.373 1277.78 401.37C1276.83 402.001 1276.52 403.157 1276.31 404.208C1275.04 409.673 1273.89 415.243 1272.52 420.603C1271.37 424.912 1270.84 430.798 1268.11 434.476C1266.63 436.473 1264.74 437.945 1264.85 440.782C1264.85 440.992 1264.85 441.203 1264.95 441.413C1265.16 441.728 1265.48 441.833 1265.79 441.938C1269.05 442.989 1271.15 440.677 1273.26 438.575C1273.57 438.26 1273.78 438.05 1274.2 437.84C1274.52 437.734 1275.04 437.734 1275.25 437.945C1275.99 438.68 1275.36 440.782 1275.25 441.623C1274.83 444.356 1273.47 446.983 1271.89 449.295C1269.16 452.974 1265.69 456.022 1263.59 460.015C1263.17 460.856 1262.75 461.697 1262.85 462.643C1262.96 464.43 1264.74 465.375 1266.32 465.48C1268.53 465.586 1269.79 463.904 1270.52 462.012C1271.05 460.751 1271.58 459.385 1272.73 458.859C1273.05 458.649 1273.47 458.649 1273.68 458.859C1273.78 458.964 1273.78 459.069 1273.78 459.28C1273.99 461.907 1273.47 464.535 1272.31 466.952C1271.15 469.474 1269.37 470.946 1267.37 472.837C1266.32 473.888 1265.27 474.834 1264.53 476.095C1264.01 477.041 1263.69 478.092 1263.8 479.143C1263.9 480.194 1264.53 481.245 1265.58 481.561C1266.95 482.086 1268.53 481.35 1269.47 480.299C1270 479.774 1272.84 475.15 1273.89 476.936C1274.31 477.567 1273.47 480.089 1273.26 480.825C1272.73 483.347 1272 485.765 1271.05 488.077C1270.94 488.287 1270.84 488.602 1270.73 488.812L1264.95 483.032H1201.77C1201.88 479.459 1199.78 475.885 1197.57 473.258C1194.21 469.264 1190 464.85 1190.95 459.7C1194.42 460.015 1195.36 466.006 1198.83 465.901C1201.46 465.796 1202.41 462.433 1201.88 459.91C1200.72 454.55 1196.2 450.767 1193.05 446.668C1191.47 444.671 1190.11 442.569 1189.48 440.152C1189.37 439.521 1188.53 437.314 1188.95 436.683C1189.79 435.422 1191.05 437.104 1191.58 437.84C1192.31 438.996 1193.05 440.152 1193.89 441.308C1194.52 442.149 1195.26 442.989 1196.1 443.62C1197.04 444.145 1198.2 444.461 1199.15 444.04C1200.41 443.515 1201.04 441.938 1201.14 440.467C1201.25 438.26 1200.3 436.053 1199.15 434.266C1197.88 432.48 1196.31 430.903 1194.84 429.221C1193.68 428.065 1192.63 426.804 1191.68 425.543C1190.53 424.177 1186.11 415.769 1189.48 414.613C1190.32 414.297 1191.16 414.718 1191.79 415.348C1192.42 415.979 1192.84 416.715 1193.47 417.345C1194.84 418.817 1196.83 419.657 1198.83 419.552C1199.36 419.552 1199.88 419.447 1200.3 419.132C1200.93 418.606 1201.14 417.766 1201.25 416.925C1201.25 414.297 1199.78 411.985 1198.31 409.988C1196.62 407.676 1195.47 405.259 1193.89 402.842C1192.21 400.109 1190.32 397.797 1190 394.434C1192.94 391.596 1195.99 400.74 1199.88 399.478C1202.62 398.638 1201.35 394.434 1199.67 392.017C1195.89 386.551 1193.47 380.245 1192 373.729C1191.26 370.471 1190.74 367.213 1190.32 363.955C1190.11 362.589 1190.32 355.547 1187.27 357.544C1186.32 358.175 1186.01 359.331 1185.8 360.382C1184.53 365.847 1183.38 371.417 1182.01 376.777C1180.86 381.086 1180.33 386.972 1177.6 390.65C1176.12 392.647 1174.23 394.119 1174.34 396.956C1174.34 397.166 1174.34 397.377 1174.44 397.587C1174.65 397.902 1174.97 398.007 1175.28 398.112C1178.54 399.163 1180.64 396.851 1182.75 394.749C1183.06 394.434 1183.27 394.224 1183.69 394.013C1184.01 393.908 1184.53 393.908 1184.74 394.118C1185.48 394.854 1184.85 396.956 1184.74 397.797C1184.32 400.53 1182.96 403.157 1181.38 405.469C1178.65 409.148 1175.18 412.195 1173.08 416.189C1172.66 417.03 1172.24 417.871 1172.34 418.817C1172.45 420.603 1174.23 421.549 1175.81 421.654C1178.02 421.759 1179.28 420.078 1180.01 418.186C1180.54 416.925 1181.07 415.559 1182.22 415.033C1182.54 414.823 1182.96 414.823 1183.17 415.033C1183.27 415.138 1183.27 415.243 1183.27 415.454C1183.48 418.081 1182.96 420.708 1181.8 423.126C1180.64 425.648 1178.86 427.119 1176.86 429.011C1175.81 430.062 1174.76 431.008 1174.02 432.269C1173.5 433.215 1173.18 434.266 1173.29 435.317C1173.39 436.368 1174.02 437.419 1175.07 437.734C1176.44 438.26 1178.02 437.524 1178.96 436.473C1179.49 435.948 1182.33 431.323 1183.38 433.11C1183.8 433.741 1182.96 436.263 1182.75 436.999C1182.22 439.521 1181.49 441.938 1180.54 444.251C1178.54 448.98 1175.7 453.394 1172.13 457.073C1170.55 458.649 1168.77 460.436 1168.87 462.643C1169.08 465.586 1172.76 466.847 1175.18 466.216C1178.65 465.27 1178.54 461.592 1181.17 459.7C1181.38 459.595 1181.59 459.49 1181.8 459.49C1182.33 459.595 1182.33 460.226 1182.33 460.751C1181.49 465.691 1179.59 470.42 1176.65 474.519C1175.18 476.621 1173.39 478.618 1172.24 480.93C1171.92 481.561 1171.6 482.191 1171.5 482.822H1153.63C1153 481.561 1152.16 480.299 1151.11 479.248C1149.95 477.987 1148.48 477.041 1147.32 475.78C1146.59 474.939 1143.33 469.474 1146.59 469.684C1147.01 469.684 1147.43 470 1147.74 470.21C1148.58 470.946 1149 471.892 1149.74 472.732C1150.47 473.468 1151.63 474.099 1152.58 473.573C1153.94 472.942 1153.84 470.946 1153.42 469.579C1152.47 466.637 1150.79 463.904 1148.79 461.487C1147.01 459.28 1143.85 456.967 1144.8 453.815C1144.9 453.394 1145.11 452.974 1145.43 452.764C1145.95 452.343 1146.8 452.343 1147.53 452.764C1148.16 453.079 1148.69 453.709 1149.11 454.235C1149.74 455.076 1152.68 459.7 1153.94 457.178C1154.15 456.862 1154.15 456.442 1154.05 456.022C1153.84 452.343 1152.58 448.665 1150.58 445.617C1148.69 442.884 1146.06 440.467 1144.8 437.419C1144.06 435.632 1143.96 432.269 1146.48 432.164C1148.69 432.164 1150.26 434.687 1151.95 435.632C1153.31 436.368 1155.42 436.263 1155.84 434.792C1156.05 434.161 1155.84 433.53 1155.63 433.005C1154.57 429.642 1152.79 426.279 1150.26 423.861C1147.85 421.444 1145.85 420.078 1144.48 416.715C1143.96 415.454 1143.75 413.667 1144.9 412.931C1145.74 412.301 1147.01 412.721 1147.74 413.457C1148.58 414.192 1149.11 415.138 1149.84 415.769C1150.58 416.504 1151.84 416.925 1152.68 416.294C1153.42 415.874 1153.63 414.928 1153.52 414.087C1153.42 413.246 1152.89 412.511 1152.47 411.775C1151 409.463 1149.42 407.256 1148.06 404.839C1147.01 403.052 1145.01 400.74 1144.69 398.638C1144.59 397.902 1144.69 396.956 1145.43 396.641C1145.95 396.431 1146.48 396.641 1146.9 396.956C1147.32 397.271 1147.64 397.692 1148.06 398.112C1148.79 398.848 1149.84 399.373 1150.9 399.584C1151.63 399.689 1152.37 399.584 1152.89 399.058C1153.31 398.638 1153.31 398.007 1153.31 397.377C1153.1 394.959 1151.11 393.067 1149.32 391.386C1148.16 390.335 1142.59 383.398 1145.11 381.927C1147.11 380.876 1149.84 387.182 1151.95 384.554C1152.58 383.819 1152.47 382.768 1152.16 381.927C1151.84 380.981 1151.21 380.14 1150.37 379.405C1149.42 378.564 1148.16 378.144 1147.11 377.513C1145.74 376.672 1142.28 371.943 1144.8 370.787C1146.8 369.841 1148.06 372.783 1149.53 373.519C1150.05 373.729 1150.68 373.834 1151 373.414C1151 373.414 1151 373.414 1151.11 373.309C1151.21 373.099 1151.21 372.889 1151.32 372.678C1151.53 369.63 1149.95 366.793 1148.27 364.27C1146.59 361.748 1144.8 359.121 1144.27 356.178C1144.17 355.652 1144.17 355.127 1144.38 354.601C1144.59 354.181 1145.11 353.761 1145.64 353.866C1146.48 354.076 1145.95 355.547 1146.69 356.178C1147.32 356.703 1148.58 356.598 1149.21 356.178C1150.37 355.442 1150.58 353.866 1150.26 352.499C1149.95 351.133 1149 350.082 1148.27 349.031C1145.85 345.563 1144.17 341.569 1143.33 337.365C1142.49 333.266 1143.12 329.378 1143.12 325.279C1143.12 324.228 1143.33 318.763 1141.43 318.868C1139.75 318.973 1139.54 323.702 1139.54 324.858C1138.91 334.002 1138.18 343.881 1132.29 350.923C1131.55 351.869 1130.61 352.815 1130.5 353.971C1130.4 355.127 1131.03 356.283 1132.08 356.808C1133.13 357.334 1134.5 357.124 1135.34 356.283C1135.86 355.757 1136.6 354.286 1137.54 355.232C1137.97 355.652 1138.07 356.178 1138.07 356.808C1138.28 360.592 1136.49 364.165 1134.5 367.318C1132.5 370.471 1130.19 373.624 1129.03 377.198C1128.61 378.354 1128.4 379.615 1128.71 380.771C1129.03 381.927 1129.98 382.978 1131.13 383.083C1133.13 383.188 1133.45 381.402 1134.92 380.561C1135.65 380.14 1136.7 380.14 1137.23 380.771C1137.65 381.191 1137.76 381.822 1137.65 382.347C1137.54 385.185 1135.02 387.182 1133.02 389.179C1130.71 391.491 1128.82 394.329 1127.66 397.482C1127.35 398.428 1127.03 399.373 1127.03 400.319C1127.03 401.265 1127.45 402.316 1128.29 402.842C1129.56 403.682 1131.24 403.157 1132.39 402.106C1133.45 401.055 1134.08 399.689 1134.81 398.428C1135.23 397.692 1135.76 396.956 1136.6 396.746C1139.96 396.01 1137.54 401.686 1136.81 402.526C1132.81 407.676 1127.35 412.826 1127.66 419.342C1127.77 420.393 1128.08 421.549 1129.03 421.97C1130.4 422.6 1131.87 421.234 1132.71 419.973C1133.23 419.237 1137.02 411.46 1137.54 415.454C1138.07 419.237 1135.13 421.024 1133.02 423.651C1130.61 426.594 1128.82 429.957 1127.77 433.636C1127.35 435.212 1127.24 437.314 1128.82 437.945C1131.13 438.891 1131.87 435.738 1133.23 434.687C1134.71 433.53 1136.7 434.161 1137.12 436.053C1137.33 437.209 1136.91 438.365 1136.28 439.416C1133.87 443.725 1128.82 446.247 1127.14 450.872C1126.72 452.133 1126.61 453.815 1127.66 454.55C1129.45 455.811 1131.24 453.604 1132.39 452.553C1132.81 452.238 1133.23 451.818 1133.76 451.818C1134.29 451.818 1134.81 452.343 1134.92 452.869C1135.02 453.394 1134.92 454.025 1134.81 454.55C1133.34 459.28 1129.13 461.382 1126.3 465.06C1125.04 466.742 1124.19 468.633 1123.88 470.735C1123.67 471.681 1123.67 472.837 1124.09 473.678C1124.51 474.624 1125.35 475.36 1126.4 475.36C1127.66 475.36 1128.61 474.099 1129.14 472.943C1129.66 471.786 1129.87 470.42 1130.82 469.474C1131.97 468.318 1134.29 468.423 1134.5 470.315C1134.6 471.786 1132.29 473.678 1131.55 474.834C1129.87 477.462 1128.29 479.984 1126.72 482.612H1107.37L1057.44 532.533C1056.6 531.377 1055.55 530.326 1054.6 529.381C1051.34 526.017 1048.93 521.813 1047.67 517.189C1049.14 519.081 1050.92 520.868 1052.92 522.339C1054.29 523.39 1055.86 523.18 1056.39 521.393C1056.6 520.657 1056.6 519.817 1056.5 518.976C1056.29 517.189 1055.97 515.507 1055.34 513.826C1054.08 511.093 1051.77 508.991 1049.77 506.679C1047.77 504.367 1046.19 501.319 1046.82 498.376C1046.93 497.956 1047.14 497.43 1047.56 497.22C1048.3 496.905 1049.03 497.43 1049.45 498.061C1050.29 499.532 1050.29 500.583 1052.19 499.953C1053.45 499.532 1054.39 497.956 1054.29 496.695C1054.29 495.644 1053.66 494.593 1053.13 493.647C1050.29 488.707 1044.62 484.293 1045.56 477.987C1045.67 477.567 1045.77 477.041 1046.09 476.726C1046.93 475.99 1048.19 476.936 1048.82 477.882C1049.45 478.828 1050.4 479.984 1051.45 479.564C1052.5 479.143 1052.5 477.777 1052.19 476.726C1050.92 471.997 1047.98 467.898 1045.98 463.378C1045.46 462.222 1045.04 460.961 1045.14 459.7C1045.14 459.49 1045.25 459.175 1045.35 459.069C1045.67 458.649 1046.51 458.649 1046.93 459.069C1047.88 459.91 1047.98 461.697 1049.66 461.907C1051.24 462.117 1052.4 460.331 1052.29 458.754C1052.19 457.178 1051.13 455.811 1050.29 454.55C1044.2 444.776 1044.2 431.849 1040.41 421.129C1040.31 420.708 1040.1 420.288 1039.78 420.078C1039.05 419.552 1037.99 420.078 1037.68 420.919C1037.36 421.759 1037.47 422.6 1037.57 423.546C1038.41 430.903 1037.05 438.365 1035.68 445.722C1035.16 448.454 1034.63 451.292 1033.68 453.92C1032.42 457.388 1030.53 460.541 1029.16 463.904C1028.43 465.586 1028.32 468.213 1030 468.739C1032.21 469.474 1033.79 465.901 1036.1 466.006C1039.89 466.111 1036.94 471.261 1036.21 472.732C1034.53 476.095 1031.79 479.248 1031.69 483.242C1031.69 483.768 1031.69 484.398 1032 484.819C1034 487.972 1036.84 482.927 1037.68 481.666C1038.1 481.035 1038.94 480.615 1039.47 481.035C1039.99 481.456 1039.99 482.191 1039.99 482.927C1039.15 490.809 1031.06 495.539 1028.95 503.001C1028.64 503.947 1028.53 504.998 1028.95 505.838C1029.9 507.835 1033.05 507.31 1034.74 505.733C1035.89 504.682 1036.52 503.211 1037.68 502.055C1038.84 500.899 1040.94 500.373 1040.41 502.896C1040.2 503.842 1039.57 504.472 1038.94 505.208C1037.26 507.1 1035.47 509.096 1033.58 510.883C1032.63 511.829 1031.58 512.67 1030.74 513.721C1029.79 515.087 1029.27 516.664 1028.74 518.24C1028.32 519.606 1027.9 521.393 1029.06 522.339C1029.79 522.969 1030.74 522.969 1031.58 522.549C1032.42 522.234 1033.05 521.498 1033.68 520.867C1034.63 519.711 1035.47 518.45 1036.21 517.189C1036.63 516.874 1037.26 517.189 1037.57 517.715C1037.78 518.24 1037.78 518.766 1037.68 519.291C1037.05 523.6 1034.95 525.597 1031.79 528.435C1028.43 531.377 1024.54 534.53 1024.22 538.944C1024.12 539.785 1024.22 540.626 1024.54 541.362H907.538C907.538 541.152 907.538 541.046 907.538 540.836C907.538 538.209 906.066 535.897 904.594 533.9C902.912 531.588 901.756 529.17 900.179 526.753C898.497 524.02 896.605 521.708 896.29 518.345C899.233 515.507 902.282 524.651 906.171 523.39C908.904 522.549 907.643 518.345 905.961 515.928C902.176 510.463 899.759 504.157 898.287 497.641C897.551 494.383 897.026 491.125 896.605 487.867C896.395 486.5 896.605 479.459 893.556 481.455C892.61 482.086 892.295 483.242 892.085 484.293C890.823 489.758 889.667 495.328 888.3 500.689C887.144 504.998 886.618 510.883 883.885 514.562C882.414 516.558 880.521 518.03 880.626 520.867C880.626 521.078 880.626 521.288 880.732 521.498C880.942 521.813 881.257 521.919 881.573 522.024C884.831 523.075 886.934 520.762 889.036 518.66C889.352 518.345 889.562 518.135 889.982 517.925C890.403 517.715 890.823 517.82 891.034 518.03C891.769 518.765 891.139 520.867 891.034 521.708C890.613 524.441 889.247 527.068 887.67 529.381C884.937 533.059 881.467 536.107 879.365 540.101C878.945 540.941 878.524 541.782 878.629 542.728C878.734 544.515 880.521 545.461 882.098 545.566C884.306 545.671 885.567 543.989 886.303 542.097C886.829 540.836 887.354 539.47 888.511 538.944C888.826 538.734 889.247 538.734 889.457 538.944C889.562 539.05 889.562 539.155 889.562 539.365C889.667 541.677 889.352 543.884 888.511 545.986L868.958 552.923C868.958 552.923 868.958 552.923 868.958 552.818C867.802 547.457 863.281 543.674 860.128 539.575C858.551 537.578 857.184 535.476 856.554 533.059C856.448 532.428 855.607 530.221 856.028 529.591C856.869 528.329 858.13 530.011 858.656 530.747C859.392 531.903 860.128 533.059 860.969 534.215C861.599 535.056 862.335 535.897 863.176 536.527C864.122 537.053 865.279 537.368 866.225 536.948C867.486 536.422 868.117 534.846 868.222 533.374C868.327 531.167 867.381 528.96 866.225 527.173C865.068 525.387 863.386 523.81 861.915 522.129C860.758 520.973 859.707 519.711 858.761 518.45C857.605 517.084 853.19 508.676 856.554 507.52C857.394 507.205 858.235 507.625 858.866 508.256C859.497 508.886 859.917 509.622 860.548 510.253C861.915 511.724 863.912 512.565 865.909 512.46C866.435 512.46 866.961 512.355 867.381 512.039C868.012 511.514 868.222 510.673 868.327 509.832C868.327 507.205 866.856 504.893 865.384 502.896C863.702 500.583 862.545 498.166 860.969 495.749C859.287 493.016 857.394 490.704 857.079 487.341C860.023 484.503 863.071 493.647 866.961 492.386C869.694 491.545 868.432 487.341 866.75 484.924C862.966 479.459 860.548 473.153 859.076 466.637C858.341 463.379 857.815 460.12 857.395 456.862C857.184 455.496 857.395 448.454 854.346 450.451C853.4 451.082 853.084 452.238 852.874 453.289C851.613 458.754 850.456 464.324 849.09 469.684C847.934 473.993 847.408 479.879 844.675 483.557C843.203 485.554 841.311 487.026 841.416 489.863C841.416 490.074 841.416 490.284 841.521 490.494C841.731 490.809 842.047 490.914 842.362 491.019C845.621 492.07 847.723 489.758 849.826 487.656C850.141 487.341 850.351 487.131 850.772 486.921C851.087 486.816 851.613 486.815 851.823 487.026C852.559 487.761 851.928 489.863 851.823 490.704C851.403 493.437 850.036 496.064 848.459 498.376C845.726 502.055 842.257 505.103 840.155 509.096C839.734 509.937 839.314 510.778 839.419 511.724C839.524 513.511 841.311 514.456 842.888 514.562C845.095 514.667 846.357 512.985 847.093 511.093C847.618 509.832 848.144 508.466 849.3 507.94C849.615 507.73 850.036 507.73 850.246 507.94C850.351 508.045 850.351 508.151 850.351 508.361C850.562 510.988 850.036 513.616 848.88 516.033C847.723 518.555 845.936 520.027 843.939 521.918C842.888 522.969 841.836 523.915 841.101 525.177C840.575 526.122 840.26 527.173 840.365 528.224C840.47 529.275 841.101 530.326 842.152 530.642C843.518 531.167 845.095 530.432 846.041 529.381C846.567 528.855 849.405 524.231 850.456 526.017C850.877 526.648 850.036 529.17 849.826 529.906C849.3 532.428 848.564 534.846 847.618 537.158C845.621 541.887 842.783 546.301 839.208 549.98C837.632 551.556 835.844 553.343 835.95 555.55C836.16 558.493 839.839 559.859 842.257 559.123C845.726 558.178 845.621 554.499 848.249 552.607C848.459 552.502 848.669 552.397 848.88 552.397C849.405 552.502 849.405 553.133 849.405 553.658C848.985 555.97 848.354 558.283 847.513 560.49L815.871 571.735C815.135 570.894 814.4 570.159 813.769 569.213C812.613 567.847 808.197 559.439 811.561 558.283C812.402 557.967 813.243 558.388 813.874 559.018C814.505 559.649 814.925 560.385 815.556 561.015C816.923 562.487 818.92 563.327 820.917 563.222C821.443 563.222 821.968 563.117 822.389 562.802C823.02 562.276 823.23 561.436 823.335 560.595C823.335 557.967 821.863 555.655 820.392 553.658C818.71 551.346 817.553 548.929 815.976 546.512C814.294 543.779 812.402 541.467 812.087 538.104C815.03 535.266 818.079 544.41 821.968 543.148C824.702 542.308 823.44 538.104 821.758 535.686C817.974 530.221 815.556 523.915 814.084 517.399C813.348 514.141 812.823 510.883 812.402 507.625C812.192 506.259 812.402 499.217 809.354 501.214C808.408 501.845 808.092 503.001 807.882 504.052C806.621 509.517 805.464 515.087 804.098 520.447C802.941 524.756 802.416 530.642 799.683 534.32C798.211 536.317 796.319 537.788 796.424 540.626C796.424 540.836 796.424 541.046 796.529 541.257C796.739 541.572 797.054 541.677 797.37 541.782C800.629 542.833 802.731 540.521 804.834 538.419C805.149 538.104 805.359 537.893 805.78 537.683C806.2 537.473 806.621 537.578 806.831 537.788C807.567 538.524 806.936 540.626 806.831 541.467C806.41 544.199 805.044 546.827 803.467 549.139C800.734 552.818 797.265 555.865 795.162 559.859C794.742 560.7 794.321 561.541 794.426 562.487C794.532 564.273 796.319 565.219 797.895 565.324C800.103 565.429 801.364 563.748 802.1 561.856C802.626 560.595 803.152 559.229 804.308 558.703C804.623 558.493 805.044 558.493 805.254 558.703C805.359 558.808 805.359 558.913 805.359 559.123C805.569 561.751 805.044 564.378 803.887 566.796C802.731 569.318 800.944 570.789 798.947 572.681C797.895 573.732 796.844 574.678 796.108 575.939C795.583 576.885 795.267 577.936 795.373 578.987L775.399 586.134H702.865L667.439 569.738C666.178 567.952 664.706 566.48 663.234 564.904C662.078 563.748 661.027 562.487 660.08 561.225C658.924 559.859 654.509 551.451 657.873 550.295C658.714 549.98 659.555 550.4 660.186 551.031C660.816 551.661 661.237 552.397 661.868 553.028C663.234 554.499 665.231 555.34 667.229 555.235C667.754 555.235 668.28 555.13 668.7 554.814C669.331 554.289 669.541 553.448 669.647 552.607C669.647 549.98 668.175 547.668 666.703 545.671C665.021 543.359 663.865 540.941 662.288 538.524C660.606 535.791 658.714 533.479 658.398 530.116C661.342 527.278 664.39 536.422 668.28 535.161C671.013 534.32 669.752 530.116 668.07 527.699C664.285 522.234 661.867 515.928 660.396 509.412C659.66 506.154 659.134 502.896 658.714 499.638C658.504 498.271 658.714 491.23 655.665 493.227C654.719 493.857 654.404 495.013 654.194 496.064C652.932 501.529 651.776 507.1 650.409 512.46C649.253 516.769 648.727 522.654 645.994 526.333C644.522 528.33 642.63 529.801 642.735 532.639C642.735 532.849 642.735 533.059 642.84 533.269C643.051 533.584 643.366 533.69 643.681 533.795C646.94 534.846 649.043 532.533 651.145 530.432C651.46 530.116 651.671 529.906 652.091 529.696C652.406 529.591 652.932 529.591 653.142 529.801C653.878 530.537 653.247 532.639 653.142 533.479C652.722 536.212 651.355 538.839 649.778 541.152C647.045 544.83 643.576 547.878 641.474 551.872C641.053 552.712 640.633 553.553 640.738 554.499C640.843 556.286 642.63 557.232 644.207 557.337C646.415 557.442 647.676 555.76 648.412 553.868C648.937 552.607 649.463 551.241 650.619 550.716C650.935 550.505 651.355 550.505 651.566 550.716C651.671 550.821 651.671 550.926 651.671 551.136C651.881 553.763 651.355 556.391 650.199 558.808C649.778 559.649 649.358 560.385 648.832 561.12L637.269 555.76C637.269 553.658 636.428 551.661 635.272 549.875C634.01 548.088 632.433 546.512 630.962 544.83C629.805 543.674 628.754 542.413 627.808 541.152C626.652 539.785 622.237 531.377 625.6 530.221C626.441 529.906 627.282 530.326 627.913 530.957C628.544 531.588 628.964 532.323 629.595 532.954C630.962 534.425 632.959 535.266 634.956 535.161C635.482 535.161 636.007 535.056 636.428 534.741C637.059 534.215 637.269 533.374 637.374 532.533C637.374 529.906 635.902 527.594 634.431 525.597C632.749 523.285 631.592 520.867 630.015 518.45C628.334 515.718 626.441 513.405 626.126 510.042C629.069 507.205 632.118 516.348 636.007 515.087C638.741 514.246 637.479 510.042 635.797 507.625C632.013 502.16 629.595 495.854 628.123 489.338C627.387 486.08 626.862 482.822 626.441 479.564C626.231 478.197 626.441 471.156 623.393 473.153C622.447 473.783 622.131 474.939 621.921 475.99C620.66 481.455 619.503 487.026 618.137 492.386C616.98 496.695 616.455 502.58 613.722 506.259C612.25 508.256 610.358 509.727 610.463 512.565C610.463 512.775 610.463 512.985 610.568 513.195C610.778 513.511 611.094 513.616 611.409 513.721C614.668 514.772 616.77 512.46 618.873 510.358C619.188 510.042 619.398 509.832 619.819 509.622C620.134 509.517 620.66 509.517 620.87 509.727C621.606 510.463 620.975 512.565 620.87 513.406C620.449 516.138 619.083 518.766 617.506 521.078C614.773 524.756 611.304 527.804 609.201 531.798C608.781 532.639 608.36 533.479 608.465 534.425C608.571 536.212 610.358 537.158 611.935 537.263C614.142 537.368 615.404 535.686 616.139 533.795C616.665 532.533 617.191 531.167 618.347 530.642C618.662 530.431 619.083 530.431 619.293 530.642C619.398 530.747 619.398 530.852 619.398 531.062C619.608 533.69 619.083 536.317 617.926 538.734C616.77 541.152 615.088 542.728 613.196 544.515L594.905 536.107C594.274 533.374 592.592 530.747 590.91 528.645C587.546 524.651 583.341 520.237 584.287 515.087C587.756 515.402 588.703 521.393 592.172 521.288C594.694 521.183 595.746 517.82 595.22 515.297C594.064 509.937 589.543 506.154 586.39 502.055C584.813 500.058 583.446 497.956 582.816 495.539C582.711 494.908 581.87 492.701 582.29 492.07C583.131 490.809 584.393 492.491 584.918 493.227C585.654 494.383 586.39 495.539 587.231 496.695C587.862 497.536 588.597 498.376 589.438 499.007C590.279 499.638 591.541 499.848 592.487 499.427C593.748 498.902 594.379 497.325 594.484 495.854C594.589 493.647 593.643 491.44 592.487 489.653C591.226 487.866 589.649 486.29 588.177 484.608C587.021 483.452 585.969 482.191 585.023 480.93C583.867 479.564 579.452 471.156 582.816 470C583.657 469.684 584.498 470.105 585.128 470.735C585.759 471.366 586.18 472.102 586.81 472.732C588.177 474.204 590.174 475.044 592.172 474.939C592.697 474.939 593.223 474.834 593.643 474.519C594.274 473.993 594.484 473.153 594.589 472.312C594.589 469.684 593.118 467.372 591.646 465.375C589.964 463.063 588.808 460.646 587.231 458.229C585.549 455.496 583.657 453.184 583.341 449.821C586.285 446.983 589.333 456.127 593.223 454.866C595.956 454.025 594.695 449.821 593.013 447.404C589.228 441.938 586.81 435.632 585.339 429.116C584.603 425.858 584.077 422.6 583.657 419.342C583.446 417.976 583.657 410.934 580.608 412.931C579.662 413.562 579.347 414.718 579.136 415.769C577.875 421.234 576.719 426.804 575.352 432.164C574.196 436.473 573.67 442.359 570.937 446.037C569.465 448.034 567.573 449.505 567.678 452.343C567.678 452.553 567.678 452.764 567.783 452.974C567.994 453.289 568.309 453.394 568.624 453.499C571.883 454.55 573.985 452.238 576.088 450.136C576.403 449.821 576.614 449.611 577.034 449.4C577.349 449.295 577.875 449.295 578.085 449.506C578.821 450.241 578.19 452.343 578.085 453.184C577.665 455.917 576.298 458.544 574.721 460.856C571.988 464.535 568.519 467.582 566.417 471.576C565.996 472.417 565.576 473.258 565.681 474.204C565.786 475.99 567.573 476.936 569.15 477.041C571.357 477.146 572.619 475.465 573.355 473.573C573.88 472.312 574.406 470.946 575.562 470.42C575.878 470.21 576.298 470.21 576.508 470.42C576.614 470.525 576.614 470.63 576.614 470.841C576.824 473.468 576.298 476.095 575.142 478.513C573.985 481.035 572.198 482.506 570.201 484.398C569.15 485.449 568.099 486.395 567.363 487.656C566.837 488.602 566.522 489.653 566.627 490.704C566.732 491.755 567.363 492.806 568.414 493.121C569.781 493.647 571.357 492.911 572.304 491.86C572.829 491.335 575.667 486.71 576.719 488.497C577.139 489.128 576.298 491.65 576.088 492.386C575.562 494.908 574.826 497.325 573.88 499.638C571.883 504.367 569.045 508.781 565.471 512.46C563.894 514.036 562.107 515.823 562.212 518.03C562.317 520.973 566.101 522.234 568.519 521.603C571.988 520.657 571.883 516.979 574.511 515.087C574.721 514.982 574.932 514.877 575.142 514.877C575.667 514.982 575.667 515.613 575.667 516.138C575.142 519.396 574.091 522.549 572.619 525.492L541.923 511.304C542.974 510.673 543.5 509.307 543.5 508.045C543.605 505.838 542.659 503.631 541.503 501.845C540.241 500.058 538.664 498.482 537.193 496.8C536.036 495.644 534.985 494.383 534.039 493.121C532.883 491.755 528.468 483.347 531.832 482.191C532.673 481.876 533.513 482.296 534.144 482.927C534.775 483.557 535.195 484.293 535.826 484.924C537.193 486.395 539.19 487.236 541.187 487.131C541.713 487.131 542.239 487.026 542.659 486.71C543.29 486.185 543.5 485.344 543.605 484.503C543.605 481.876 542.133 479.564 540.662 477.567C538.98 475.255 537.824 472.837 536.247 470.42C534.565 467.688 532.673 465.375 532.357 462.012C535.301 459.175 538.349 468.318 542.239 467.057C544.972 466.216 543.71 462.012 542.028 459.595C538.244 454.13 535.826 447.824 534.354 441.308C533.619 438.05 533.093 434.792 532.672 431.534C532.462 430.167 532.672 423.126 529.624 425.123C528.678 425.753 528.363 426.909 528.152 427.96C526.891 433.425 525.734 438.996 524.368 444.356C523.211 448.665 522.686 454.55 519.953 458.229C518.481 460.226 516.589 461.697 516.694 464.535C516.694 464.745 516.694 464.955 516.799 465.165C517.009 465.48 517.325 465.586 517.64 465.691C520.899 466.742 523.001 464.429 525.104 462.328C525.419 462.012 525.629 461.802 526.05 461.592C526.365 461.487 526.891 461.487 527.101 461.697C527.837 462.433 527.206 464.535 527.101 465.375C526.681 468.108 525.314 470.735 523.737 473.048C521.004 476.726 517.535 479.774 515.432 483.768C515.012 484.608 514.592 485.449 514.697 486.395C514.802 488.182 516.589 489.128 518.166 489.233C520.373 489.338 521.635 487.656 522.371 485.765C522.896 484.503 523.422 483.137 524.578 482.612C524.893 482.401 525.314 482.401 525.524 482.612C525.629 482.717 525.629 482.822 525.629 483.032C525.84 485.659 525.314 488.287 524.158 490.704C523.001 493.227 521.214 494.698 519.217 496.59C518.271 497.536 517.325 498.376 516.589 499.532L487.05 485.87C486.629 485.344 486.103 484.924 485.683 484.398C484.527 483.242 483.475 481.981 482.529 480.72C481.373 479.353 476.958 470.946 480.322 469.79C481.163 469.474 482.004 469.895 482.634 470.525C483.265 471.156 483.686 471.891 484.316 472.522C485.683 473.993 487.68 474.834 489.678 474.729C490.203 474.729 490.729 474.624 491.149 474.309C491.78 473.783 491.99 472.943 492.095 472.102C492.095 469.474 490.624 467.162 489.152 465.165C487.47 462.853 486.314 460.436 484.737 458.018C483.055 455.286 481.163 452.974 480.847 449.611C483.791 446.773 486.839 455.916 490.729 454.655C493.462 453.815 492.2 449.611 490.519 447.193C486.734 441.728 484.316 435.422 482.845 428.906C482.109 425.648 481.583 422.39 481.163 419.132C480.952 417.766 481.163 410.724 478.114 412.721C477.168 413.352 476.853 414.508 476.642 415.559C475.381 421.024 474.225 426.594 472.858 431.954C471.702 436.263 471.176 442.149 468.443 445.827C466.971 447.824 465.079 449.295 465.184 452.133C465.184 452.343 465.184 452.553 465.289 452.764C465.499 453.079 465.815 453.184 466.13 453.289C469.389 454.34 471.491 452.028 473.594 449.926C473.909 449.611 474.12 449.4 474.54 449.19C474.855 449.085 475.381 449.085 475.591 449.295C476.327 450.031 475.696 452.133 475.591 452.974C475.171 455.706 473.804 458.334 472.227 460.646C469.494 464.324 466.025 467.372 463.923 471.366C463.502 472.207 463.082 473.048 463.187 473.993C463.187 474.309 463.292 474.729 463.502 474.939L456.039 471.471C454.882 469.79 453.41 468.318 451.939 466.847C450.782 465.691 449.731 464.43 448.785 463.168C447.629 461.802 443.214 453.394 446.578 452.238C447.419 451.923 448.259 452.343 448.89 452.974C449.521 453.604 449.941 454.34 450.572 454.971C451.939 456.442 453.936 457.283 455.933 457.178C456.459 457.178 456.985 457.073 457.405 456.757C458.036 456.232 458.246 455.391 458.351 454.55C458.351 451.923 456.879 449.611 455.408 447.614C453.726 445.302 452.569 442.884 450.993 440.467C449.311 437.734 447.419 435.422 447.103 432.059C450.047 429.221 453.095 438.365 456.985 437.104C459.718 436.263 458.456 432.059 456.774 429.642C452.99 424.177 450.572 417.871 449.1 411.355C448.365 408.097 447.839 404.839 447.419 401.58C447.208 400.214 447.419 393.173 444.37 395.169C443.424 395.8 443.109 396.956 442.898 398.007C441.637 403.472 440.48 409.042 439.114 414.403C437.958 418.712 437.432 424.597 434.699 428.276C433.227 430.272 431.335 431.744 431.44 434.581C431.44 434.792 431.44 435.002 431.545 435.212C431.755 435.527 432.071 435.632 432.386 435.738C435.645 436.789 437.747 434.476 439.85 432.374C440.165 432.059 440.375 431.849 440.796 431.639C441.111 431.534 441.637 431.534 441.847 431.744C442.583 432.48 441.952 434.581 441.847 435.422C441.427 438.155 440.06 440.782 438.483 443.094C435.75 446.773 432.281 449.821 430.178 453.815C429.758 454.655 429.338 455.496 429.443 456.442C429.548 458.229 431.335 459.175 432.912 459.28C435.119 459.385 436.381 457.703 437.117 455.811C437.642 454.55 438.168 453.184 439.324 452.658C439.639 452.448 440.06 452.448 440.27 452.658C440.375 452.764 440.375 452.869 440.375 453.079C440.586 455.706 440.06 458.334 438.904 460.751C438.483 461.592 438.063 462.222 437.537 462.958L402.531 446.773C401.06 445.091 399.588 443.41 398.221 441.728C396.645 439.731 395.278 437.629 394.647 435.212C394.542 434.581 393.701 432.374 394.122 431.744C394.963 430.483 396.224 432.164 396.75 432.9C397.486 434.056 398.221 435.212 399.062 436.368C399.693 437.209 400.429 438.05 401.27 438.68C402.216 439.206 403.372 439.521 404.318 439.101C405.58 438.575 406.211 436.999 406.316 435.527C406.421 433.32 405.475 431.113 404.318 429.327C403.057 427.54 401.48 425.963 400.008 424.282C398.852 423.126 397.801 421.865 396.855 420.603C395.698 419.237 391.283 410.829 394.647 409.673C395.488 409.358 396.329 409.778 396.96 410.409C397.591 411.039 398.011 411.775 398.642 412.406C400.008 413.877 402.006 414.718 404.003 414.613C404.529 414.613 405.054 414.508 405.475 414.192C406.106 413.667 406.316 412.826 406.421 411.985C406.421 409.358 404.949 407.046 403.477 405.049C401.796 402.737 400.639 400.319 399.167 397.902C397.486 395.169 395.593 392.857 395.278 389.494C398.221 386.656 401.27 395.8 405.159 394.539C407.893 393.698 406.631 389.494 404.949 387.077C401.165 381.612 398.747 375.306 397.275 368.79C396.539 365.532 396.014 362.274 395.593 359.016C395.383 357.649 395.593 350.608 392.545 352.605C391.599 353.235 391.283 354.391 391.073 355.442C389.812 360.907 388.655 366.478 387.289 371.838C386.132 376.147 385.607 382.032 382.874 385.711C381.402 387.707 379.51 389.179 379.615 392.017C379.615 392.227 379.615 392.437 379.72 392.647C379.93 392.962 380.246 393.067 380.561 393.173C383.82 394.224 385.922 391.911 388.025 389.809C388.34 389.494 388.55 389.284 388.971 389.074C389.286 388.969 389.812 388.969 390.022 389.179C390.758 389.915 390.127 392.017 390.022 392.857C389.601 395.59 388.235 398.217 386.658 400.529C383.925 404.208 380.456 407.256 378.353 411.25C377.933 412.09 377.512 412.931 377.617 413.877C377.723 415.664 379.51 416.61 381.086 416.715C383.294 416.82 384.556 415.138 385.291 413.246C385.817 411.985 386.343 410.619 387.499 410.094C387.814 409.883 388.235 409.883 388.445 410.094C388.55 410.199 388.55 410.304 388.55 410.514C388.76 413.141 388.235 415.769 387.078 418.186C385.922 420.708 384.135 422.18 382.138 424.072C381.086 425.123 380.035 426.068 379.299 427.33C378.774 428.276 378.458 429.327 378.564 430.378C378.669 431.429 379.299 432.48 380.351 432.795C381.717 433.32 383.294 432.585 384.24 431.534C384.766 431.008 387.604 426.384 388.655 428.17C389.076 428.801 388.235 431.323 388.025 432.059C387.604 434.371 386.868 436.683 386.027 438.891L352.178 424.912C352.178 424.912 352.178 424.912 352.178 424.807C352.178 422.18 350.706 419.868 349.235 417.871C347.553 415.559 346.396 413.141 344.819 410.724C343.137 407.992 341.245 405.679 340.93 402.316C343.873 399.479 346.922 408.622 350.811 407.361C353.545 406.52 352.283 402.316 350.601 399.899C346.817 394.434 344.399 388.128 342.927 381.612C342.191 378.354 341.666 375.096 341.245 371.838C341.035 370.471 341.245 363.43 338.197 365.427C337.251 366.057 336.935 367.213 336.725 368.264C335.464 373.729 334.307 379.3 332.941 384.66C331.784 388.969 331.259 394.854 328.525 398.533C327.054 400.53 325.162 402.001 325.267 404.839C325.267 405.049 325.267 405.259 325.372 405.469C325.582 405.784 325.897 405.89 326.213 405.995C329.472 407.046 331.574 404.733 333.676 402.631C333.992 402.316 334.202 402.106 334.623 401.896C334.938 401.791 335.464 401.791 335.674 402.001C336.41 402.737 335.779 404.839 335.674 405.679C335.253 408.412 333.887 411.039 332.31 413.352C331.889 413.982 331.364 414.508 330.943 415.138L315.07 407.781C314.229 406.835 313.388 405.89 312.547 404.944C311.391 403.788 310.339 402.526 309.393 401.265C308.237 399.899 303.822 391.491 307.186 390.335C308.027 390.02 308.868 390.44 309.498 391.071C310.129 391.701 310.55 392.437 311.18 393.068C312.547 394.539 314.544 395.38 316.542 395.275C317.067 395.275 317.593 395.169 318.013 394.854C318.644 394.329 318.854 393.488 318.959 392.647C318.959 390.02 317.488 387.707 316.016 385.711C314.334 383.398 313.178 380.981 311.601 378.564C309.919 375.831 308.027 373.519 307.711 370.156C310.655 367.318 313.703 376.462 317.593 375.201C320.326 374.36 319.064 370.156 317.383 367.739C313.598 362.274 311.18 355.968 309.709 349.452C308.973 346.193 308.447 342.935 308.027 339.677C307.816 338.311 308.027 331.269 304.978 333.266C304.032 333.897 303.717 335.053 303.506 336.104C302.245 341.569 301.089 347.139 299.722 352.499C298.566 356.808 298.04 362.694 295.307 366.372C293.835 368.369 291.943 369.841 292.048 372.678C292.048 372.889 292.048 373.099 292.153 373.309C292.363 373.624 292.679 373.729 292.994 373.834C296.253 374.885 298.355 372.573 300.458 370.471C300.773 370.156 300.983 369.946 301.404 369.736C301.719 369.63 302.245 369.63 302.455 369.841C303.191 370.576 302.56 372.678 302.455 373.519C302.035 376.252 300.668 378.879 299.091 381.191C296.358 384.87 292.889 387.918 290.787 391.911C290.366 392.752 289.946 393.593 290.051 394.539C290.156 396.326 291.943 397.271 293.52 397.377C295.727 397.482 296.989 395.8 297.725 393.908C298.25 392.647 298.776 391.281 299.932 390.755C300.248 390.545 300.668 390.545 300.878 390.755C300.983 390.86 300.983 390.966 300.983 391.176C301.194 393.803 300.668 396.431 299.512 398.848C299.302 399.268 299.091 399.689 298.776 400.109L276.7 389.915C276.595 386.551 274.493 383.293 272.495 380.771C269.132 376.777 264.927 372.363 265.873 367.213C269.342 367.528 270.288 373.519 273.757 373.414C276.385 373.414 277.331 369.946 276.805 367.423C275.649 362.063 271.129 358.28 267.87 354.181C266.293 352.184 264.927 350.082 264.296 347.665C264.191 347.034 263.35 344.827 263.77 344.197C264.611 342.935 265.873 344.617 266.398 345.353C267.134 346.509 267.87 347.665 268.711 348.821C269.342 349.662 270.078 350.503 270.919 351.133C271.865 351.659 273.021 351.974 273.967 351.554C275.229 351.028 275.859 349.452 275.964 347.98C276.07 345.773 275.123 343.566 273.967 341.779C272.811 339.993 271.129 338.416 269.657 336.735C268.501 335.578 267.45 334.317 266.503 333.056C265.347 331.69 260.932 323.282 264.296 322.126C265.137 321.811 265.978 322.231 266.609 322.862C267.239 323.492 267.66 324.228 268.291 324.858C269.657 326.33 271.654 327.171 273.652 327.066C274.177 327.066 274.703 326.96 275.123 326.645C275.754 326.12 275.964 325.279 276.07 324.438C276.07 321.811 274.598 319.498 273.126 317.502C271.444 315.189 270.288 312.772 268.711 310.355C267.029 307.622 265.137 305.31 264.822 301.947C267.765 299.109 270.813 308.253 274.703 306.992C277.436 306.151 276.175 301.947 274.493 299.53C270.708 294.065 268.291 287.759 266.819 281.242C266.083 277.984 265.557 274.726 265.137 271.468C264.927 270.102 265.137 263.06 262.088 265.057C261.142 265.688 260.827 266.844 260.617 267.895C259.355 273.36 258.199 278.93 256.832 284.29C255.676 288.599 255.15 294.485 252.417 298.163C250.945 300.16 249.053 301.632 249.158 304.469C249.158 304.68 249.158 304.89 249.263 305.1C249.474 305.415 249.789 305.52 250.104 305.625C253.363 306.676 255.466 304.364 257.568 302.262C257.883 301.947 258.094 301.737 258.514 301.527C258.83 301.421 259.355 301.421 259.565 301.632C260.301 302.367 259.671 304.469 259.565 305.31C259.145 308.043 257.778 310.67 256.201 312.982C253.468 316.661 249.999 319.709 247.897 323.702C247.476 324.543 247.056 325.384 247.161 326.33C247.266 328.117 249.053 329.062 250.63 329.168C252.838 329.273 254.099 327.591 254.835 325.699C255.361 324.438 255.886 323.072 257.042 322.546C257.358 322.336 257.778 322.336 257.989 322.546C258.094 322.651 258.094 322.756 258.094 322.967C258.304 325.594 257.778 328.222 256.622 330.639C255.466 333.161 253.679 334.633 251.681 336.524C250.63 337.575 249.579 338.521 248.843 339.782C248.317 340.728 248.002 341.779 248.107 342.83C248.212 343.881 248.843 344.932 249.894 345.248C251.261 345.773 252.838 345.037 253.784 343.986C254.309 343.461 257.148 338.837 258.199 340.623C258.619 341.254 257.778 343.776 257.568 344.512C257.042 347.034 256.307 349.452 255.361 351.764C253.363 356.493 250.525 360.907 246.951 364.586C245.374 366.162 243.587 367.949 243.692 370.156C243.902 373.099 247.581 374.36 249.999 373.729C253.468 372.783 253.363 369.105 255.991 367.213C256.201 367.108 256.412 367.003 256.622 367.003C257.148 367.108 257.148 367.739 257.148 368.264C256.517 371.943 255.255 375.621 253.468 378.879L229.816 367.949C228.87 366.793 227.713 365.637 226.662 364.481C225.506 363.325 224.455 362.063 223.509 360.802C222.352 359.436 217.937 351.028 221.301 349.872C222.142 349.557 222.983 349.977 223.614 350.608C224.244 351.238 224.665 351.974 225.296 352.605C226.662 354.076 228.66 354.917 230.657 354.812C231.182 354.812 231.708 354.706 232.129 354.391C232.759 353.866 232.97 353.025 233.075 352.184C233.075 349.557 231.603 347.244 230.131 345.248C228.449 342.935 227.293 340.518 225.716 338.101C224.034 335.368 222.142 333.056 221.827 329.693C224.77 326.855 227.819 335.999 231.708 334.738C234.441 333.897 233.18 329.693 231.498 327.276C227.713 321.811 225.296 315.505 223.824 308.989C223.088 305.731 222.562 302.472 222.142 299.214C221.932 297.848 222.142 290.806 219.093 292.803C218.147 293.434 217.832 294.59 217.622 295.641C216.36 301.106 215.204 306.676 213.837 312.036C212.681 316.345 212.155 322.231 209.422 325.909C207.95 327.906 206.058 329.378 206.163 332.215C206.163 332.426 206.163 332.636 206.269 332.846C206.479 333.161 206.794 333.266 207.109 333.371C210.368 334.422 212.471 332.11 214.573 330.008C214.889 329.693 215.099 329.483 215.519 329.273C215.835 329.167 216.36 329.167 216.57 329.378C217.306 330.113 216.676 332.215 216.57 333.056C216.15 335.789 214.783 338.416 213.207 340.728C210.473 344.407 207.004 347.455 204.902 351.448C204.481 352.289 204.061 353.13 204.166 354.076C204.271 355.863 206.058 356.808 207.635 356.914C209.843 357.019 211.104 355.337 211.84 353.445C212.366 352.184 212.891 350.818 214.048 350.292C214.363 350.082 214.783 350.082 214.994 350.292C215.099 350.397 215.099 350.503 215.099 350.713C215.309 353.34 214.783 355.968 213.627 358.385C213.312 359.016 212.996 359.541 212.681 359.961L185.559 347.455C184.403 346.088 183.247 344.827 182.09 343.461C180.514 341.464 179.147 339.362 178.516 336.945C178.411 336.314 177.57 334.107 177.991 333.477C178.832 332.215 180.093 333.897 180.619 334.633C181.355 335.789 182.09 336.945 182.931 338.101C183.562 338.942 184.298 339.782 185.139 340.413C186.085 340.939 187.241 341.254 188.188 340.833C189.449 340.308 190.08 338.731 190.185 337.26C190.29 335.053 189.344 332.846 188.188 331.059C186.926 329.273 185.349 327.696 183.878 326.015C182.721 324.858 181.67 323.597 180.724 322.336C179.568 320.97 175.152 312.562 178.516 311.406C179.357 311.091 180.198 311.511 180.829 312.142C181.46 312.772 181.88 313.508 182.511 314.138C183.878 315.61 185.875 316.451 187.872 316.345C188.398 316.345 188.923 316.24 189.344 315.925C189.975 315.4 190.185 314.559 190.29 313.718C190.29 311.091 188.818 308.778 187.347 306.781C185.665 304.469 184.508 302.052 182.931 299.635C181.249 296.902 179.357 294.59 179.042 291.227C181.985 288.389 185.034 297.533 188.923 296.272C191.657 295.431 190.395 291.227 188.713 288.81C184.929 283.344 182.511 277.039 181.039 270.522C180.303 267.264 179.778 264.006 179.357 260.748C179.147 259.382 179.357 252.34 176.309 254.337C175.363 254.968 175.047 256.124 174.837 257.175C173.576 262.64 172.419 268.21 171.053 273.57C169.896 277.879 169.371 283.765 166.638 287.443C165.166 289.44 163.274 290.912 163.379 293.749C163.379 293.959 163.379 294.17 163.484 294.38C163.694 294.695 164.009 294.8 164.325 294.905C167.584 295.956 169.686 293.644 171.788 291.542C172.104 291.227 172.314 291.017 172.735 290.807C173.05 290.701 173.576 290.701 173.786 290.912C174.522 291.647 173.891 293.749 173.786 294.59C173.365 297.323 171.999 299.95 170.422 302.262C167.689 305.941 164.22 308.989 162.117 312.982C161.697 313.823 161.276 314.664 161.381 315.61C161.487 317.396 163.274 318.342 164.85 318.447C167.058 318.553 168.319 316.871 169.055 314.979C169.581 313.718 170.107 312.352 171.263 311.826C171.578 311.616 171.999 311.616 172.209 311.826C172.314 311.931 172.314 312.036 172.314 312.247C172.524 314.874 171.999 317.502 170.842 319.919C169.686 322.441 167.899 323.913 165.902 325.804C164.85 326.855 163.799 327.801 163.063 329.062C162.538 330.008 162.222 331.059 162.327 332.11C162.433 333.161 163.063 334.212 164.115 334.528C165.481 335.053 167.058 334.317 168.004 333.266C168.53 332.741 171.368 328.116 172.419 329.903C172.84 330.534 171.999 333.056 171.788 333.792C171.368 335.894 170.737 337.996 170.001 339.993L144.562 328.222C143.406 326.75 142.144 325.489 140.988 324.123C139.831 322.967 138.78 321.705 137.834 320.444C136.678 319.078 132.263 310.67 135.627 309.514C136.467 309.199 137.308 309.619 137.939 310.25C138.57 310.88 138.99 311.616 139.621 312.247C140.988 313.718 142.985 314.559 144.982 314.454C145.508 314.454 146.034 314.349 146.454 314.033C147.085 313.508 147.295 312.667 147.4 311.826C147.4 309.199 145.928 306.887 144.457 304.89C142.775 302.578 141.618 300.16 140.042 297.743C138.36 295.01 136.467 292.698 136.152 289.335C139.096 286.497 142.144 295.641 146.034 294.38C148.767 293.539 147.505 289.335 145.823 286.918C142.039 281.453 139.621 275.147 138.149 268.631C137.414 265.373 136.888 262.115 136.467 258.856C136.257 257.49 136.467 250.449 133.419 252.445C132.473 253.076 132.157 254.232 131.947 255.283C130.686 260.748 129.529 266.318 128.163 271.679C127.006 275.988 126.481 281.873 123.748 285.552C122.276 287.548 120.384 289.02 120.489 291.857C120.489 292.068 120.489 292.278 120.594 292.488C120.804 292.803 121.12 292.908 121.435 293.014C124.694 294.065 126.796 291.752 128.899 289.65C129.214 289.335 129.424 289.125 129.845 288.915C130.16 288.81 130.686 288.81 130.896 289.02C131.632 289.756 131.001 291.857 130.896 292.698C130.476 295.431 129.109 298.058 127.532 300.37C124.799 304.049 121.33 307.097 119.227 311.091C118.807 311.931 118.386 312.772 118.492 313.718C118.597 315.505 120.384 316.451 121.961 316.556C124.168 316.661 125.43 314.979 126.166 313.087C126.691 311.826 127.217 310.46 128.373 309.934C128.688 309.724 129.109 309.724 129.319 309.934C129.424 310.04 129.424 310.25 129.424 310.355C129.635 312.982 129.109 315.61 127.953 318.027C127.637 318.763 127.217 319.393 126.796 319.919L97.4672 306.361C97.3621 306.151 97.1518 305.836 97.0467 305.625C95.3647 302.893 93.4726 300.581 93.1572 297.217C96.1006 294.38 99.1491 303.523 103.039 302.262C105.772 301.421 104.51 297.218 102.828 294.8C99.044 289.335 96.6262 283.029 95.1545 276.513C94.4187 273.255 93.893 269.997 93.4726 266.739C93.2623 265.373 93.4726 258.331 90.424 260.328C89.4779 260.958 89.1626 262.115 88.9523 263.165C87.6908 268.631 86.5345 274.201 85.1679 279.561C84.0116 283.87 83.486 289.756 80.7528 293.434C79.7016 294.8 78.5452 295.956 77.9145 297.323L53.1057 285.867C51.7391 283.555 50.8981 281.137 51.3186 278.51C54.7876 278.825 55.7337 284.816 59.2028 284.711C61.8308 284.606 62.7769 281.243 62.2513 278.72C61.095 273.36 56.5747 269.577 53.4211 265.478C51.8442 263.481 50.4776 261.379 49.8469 258.962C49.7418 258.331 48.9008 256.124 49.3213 255.493C50.1623 254.232 51.4237 255.914 51.9493 256.649C52.6852 257.806 53.4211 258.962 54.262 260.118C54.8928 260.958 55.6286 261.799 56.4696 262.43C57.4157 262.955 58.572 263.271 59.5181 262.85C60.7796 262.325 61.4103 260.748 61.5155 259.277C61.6206 257.07 60.6745 254.863 59.5181 253.076C58.2567 251.289 56.6798 249.713 55.2081 248.031C54.0518 246.875 53.0006 245.614 52.0545 244.353C50.8981 242.987 46.483 234.579 49.8469 233.423C50.6879 233.107 51.5289 233.528 52.1596 234.158C52.7903 234.789 53.2108 235.525 53.8415 236.155C55.2081 237.627 57.2054 238.467 59.2028 238.362C59.7284 238.362 60.254 238.257 60.6745 237.942C61.3052 237.416 61.5155 236.576 61.6206 235.735C61.6206 233.107 60.1489 230.795 58.6772 228.798C56.9952 226.486 55.8389 224.069 54.262 221.652C52.5801 218.919 50.6879 216.607 50.3725 213.244C53.3159 210.406 56.3645 219.55 60.254 218.288C62.9872 217.448 61.7257 213.244 60.0437 210.826C56.2593 205.361 53.8415 199.055 52.3698 192.539C51.634 189.281 51.1084 186.023 50.6879 182.765C50.4776 181.399 50.6879 174.357 47.6393 176.354C46.6932 176.985 46.3779 178.141 46.1676 179.192C44.9062 184.657 43.7498 190.227 42.3832 195.587C41.2269 199.896 40.7013 205.782 37.9681 209.46C36.4964 211.457 34.6042 212.928 34.7093 215.766C34.7093 215.976 34.7093 216.186 34.8145 216.397C35.0247 216.712 35.3401 216.817 35.6554 216.922C38.9142 217.973 41.0167 215.661 43.1191 213.559C43.4345 213.244 43.6447 213.033 44.0652 212.823C44.3806 212.718 44.9062 212.718 45.1164 212.928C45.8523 213.664 45.2215 215.766 45.1164 216.607C44.6959 219.339 43.3293 221.967 41.7525 224.279C39.0193 227.957 35.5503 231.005 33.4479 234.999C33.0274 235.84 32.6069 236.681 32.712 237.627C32.8171 239.413 34.6042 240.359 36.181 240.464C38.3886 240.569 39.6501 238.888 40.3859 236.996C40.9115 235.735 41.4371 234.368 42.5935 233.843C42.9088 233.633 43.3293 233.633 43.5396 233.843C43.6447 233.948 43.6447 234.053 43.6447 234.263C43.8549 236.891 43.3293 239.518 42.173 241.936C41.0167 244.458 39.2296 245.929 37.2323 247.821C36.181 248.872 35.1298 249.818 34.394 251.079C33.8684 252.025 33.553 253.076 33.6581 254.127C33.7632 255.178 34.394 256.229 35.4452 256.544C36.8118 257.07 38.3886 256.334 39.3347 255.283C39.8603 254.758 42.6986 250.133 43.7498 251.92C44.1703 252.551 43.3293 255.073 43.1191 255.809C42.5935 258.331 41.8576 260.748 40.9115 263.06C38.9142 267.79 36.0759 272.204 32.5018 275.882L32.3966 275.988L16.5232 268.631C15.2617 266.844 13.6849 265.267 12.2132 263.691C11.0569 262.535 10.0056 261.274 9.05955 260.013C7.9032 258.646 3.48808 250.238 6.85198 249.082C7.69296 248.767 8.53394 249.187 9.16467 249.818C9.7954 250.449 10.2159 251.184 10.8466 251.815C12.2132 253.286 14.2105 254.127 16.2078 254.022C16.7335 254.022 17.2591 253.917 17.6796 253.602C18.3103 253.076 18.5205 252.235 18.6257 251.394C18.6257 248.767 17.1539 246.455 15.6822 244.458C14.0003 242.146 12.8439 239.729 11.2671 237.311C9.58516 234.579 7.69296 232.267 7.37759 228.903C10.321 226.066 13.3696 235.209 17.2591 233.948C19.9922 233.107 18.7308 228.903 17.0488 226.486C13.2644 220.916 10.8466 214.715 9.37491 208.199C8.63906 204.941 8.11345 201.683 7.69296 198.425C7.48271 197.058 7.69296 190.017 4.64442 192.014C3.69832 192.644 3.48808 193.8 3.17271 194.851C1.91124 200.316 0.754904 205.887 -0.611683 211.247C-1.76803 215.556 -2.29364 221.441 -5.02681 225.12C-6.49852 227.117 -8.39072 228.588 -8.28559 231.426C-8.28559 231.636 -8.28559 231.846 -8.18047 232.056C-7.97023 232.372 -7.65486 232.477 -7.3395 232.582C-4.08071 233.633 -1.97827 231.321 0.12417 229.219C0.439537 228.903 0.64978 228.693 1.07027 228.483C1.38563 228.378 1.91124 228.378 2.12149 228.588C2.85734 229.324 2.22661 231.426 2.12149 232.267C1.701 234.999 0.334415 237.627 -1.24242 239.939C-3.97559 243.617 -7.44462 246.665 -9.54706 250.659C-9.96755 251.5 -10.388 252.34 -10.2829 253.286C-10.1778 255.073 -8.39072 256.019 -6.81389 256.124C-4.60632 256.229 -3.34486 254.547 -2.609 252.656C-2.08339 251.394 -1.55778 250.028 -0.40144 249.503C-0.0860737 249.292 0.334414 249.292 0.544658 249.503C0.64978 249.608 0.649781 249.713 0.649781 249.923C0.860025 252.551 0.334415 255.178 -0.821928 257.595C-1.24242 258.436 -1.76803 259.172 -2.29364 259.907L-25 249.398V1008H1465V595.488V586.764V392.647H1443.98ZM530.36 505.103C531.201 503.841 532.462 505.523 532.988 506.259C533.619 507.415 534.354 508.466 535.09 509.517L530.675 507.415C530.36 506.469 530.15 505.418 530.36 505.103ZM524.578 501.634C524.788 502.055 524.578 503.421 524.263 504.367L521.53 503.106C522.581 501.845 523.947 500.478 524.578 501.634ZM469.599 474.204C470.125 472.943 470.65 471.576 471.807 471.051C472.122 470.841 472.543 470.841 472.753 471.051C472.858 471.156 472.858 471.261 472.858 471.471C473.068 474.099 472.543 476.726 471.386 479.143C471.281 479.353 471.176 479.564 470.966 479.774L466.13 477.567C467.917 477.357 468.969 475.78 469.599 474.204ZM85.1679 297.953C85.4833 297.638 85.6935 297.428 86.114 297.217C86.4294 297.112 86.955 297.112 87.1652 297.323C87.9011 298.058 87.2704 300.16 87.1652 301.001C87.0601 301.421 86.955 301.842 86.8499 302.262L82.5399 300.265C83.486 299.74 84.3269 298.794 85.1679 297.953ZM40.5962 279.246C40.8064 279.141 41.0166 279.035 41.2269 279.035C41.7525 279.141 41.7525 279.771 41.7525 280.297C41.6474 280.612 41.5423 281.032 41.5423 281.348L39.5449 280.402C39.7552 279.981 40.1757 279.561 40.5962 279.246ZM1432.31 390.23C1433.15 389.915 1433.99 390.335 1434.62 390.966C1435.15 391.491 1435.57 392.122 1436.09 392.647H1431.05C1431.05 391.491 1431.36 390.545 1432.31 390.23ZM1424.95 390.65C1425.26 390.44 1425.68 390.44 1425.89 390.65C1426 390.755 1426 390.86 1426 391.071C1426 391.596 1426 392.122 1426 392.647H1423.27C1423.69 391.806 1424.21 391.071 1424.95 390.65ZM1050.08 540.101L1048.61 541.572H1048.09C1047.67 540.416 1047.35 539.155 1047.14 537.893C1048.09 538.629 1049.03 539.47 1050.08 540.101ZM1031.58 539.05C1033.16 536.527 1036.1 533.479 1038.52 535.266C1038.41 537.788 1036.73 539.89 1034.84 541.572H1029.37C1030.22 540.836 1031.06 539.89 1031.58 539.05ZM895.869 538.734C896.71 538.419 897.551 538.839 898.182 539.47C898.813 540.101 899.233 540.836 899.864 541.467C900.074 541.677 900.284 541.782 900.495 541.992L895.238 543.884C894.503 541.467 894.292 539.26 895.869 538.734ZM858.13 552.818C859.707 552.923 860.758 554.289 861.81 555.76L858.341 557.021C857.92 555.655 857.815 554.289 858.13 552.818Z" fill="#13A3AA"/>
</svg>
